<?xml version="1.0" encoding="iso-8859-1"?>
<!-- Generator: Adobe Illustrator 19.0.0, SVG Export Plug-In . SVG Version: 6.00 Build 0)  -->
<svg version="1.1" id="Layer_1" xmlns="http://www.w3.org/2000/svg" xmlns:xlink="http://www.w3.org/1999/xlink" x="0px" y="0px"
	 viewBox="0 0 511.999 511.999" style="enable-background:new 0 0 511.999 511.999;" xml:space="preserve">
<path style="fill:#3FC8F2;" d="M256.884,112.114c-79.64,0-144.432,64.792-144.432,144.432c0,38.61,15.053,74.904,42.385,102.197
	c1.513,1.51,3.562,2.358,5.699,2.358c0.006,0,0.014,0,0.02,0c2.144-0.005,4.197-0.865,5.708-2.386l72.943-73.567
	c1.538-1.551,2.38-3.658,2.336-5.841c-0.044-2.183-0.971-4.255-2.57-5.742c-5.151-4.792-7.987-11.296-7.987-18.316
	c0-13.793,11.222-25.015,25.015-25.015l0.685,0.019c2.174,0.053,4.276-0.771,5.832-2.288c1.555-1.518,2.433-3.6,2.433-5.773V120.178
	C264.949,115.724,261.339,112.114,256.884,112.114z"/>
<path style="fill:#0DAACE;" d="M256.884,112.114c-11.086,0-21.883,1.259-32.259,3.636v184.104l14.581-14.706
	c1.538-1.551,2.38-3.658,2.336-5.841c-0.044-2.183-0.971-4.255-2.57-5.742c-5.151-4.792-7.987-11.296-7.987-18.316
	c0-13.793,11.222-25.015,25.015-25.015l0.685,0.019c2.174,0.053,4.276-0.771,5.832-2.288c1.555-1.518,2.433-3.6,2.433-5.773V120.178
	C264.949,115.724,261.339,112.114,256.884,112.114z"/>
<path style="fill:#F77935;" d="M450.441,248.023l-161.377-0.073c-0.002,0-0.003,0-0.004,0c-4.382,0-7.963,3.5-8.063,7.882
	c-0.306,13.472-11.521,24.434-24.999,24.434c-6.337,0-12.383-2.38-17.027-6.699c-3.188-2.965-8.154-2.864-11.221,0.226
	L114.655,387.856c-3.136,3.164-3.114,8.269,0.049,11.406c38.04,37.719,88.485,58.492,142.046,58.492
	c111.196,0,201.702-90.465,201.752-201.662C458.505,251.637,454.895,248.025,450.441,248.023z"/>
<path style="fill:#D9510D;" d="M450.441,248.023l-38.914-0.017v0.204c3.632,0.786,6.354,4.015,6.352,7.882
	c-0.047,104.358-79.767,190.451-181.487,200.647c6.723,0.67,13.514,1.014,20.358,1.014c111.196,0,201.702-90.465,201.752-201.662
	C458.505,251.637,454.895,248.025,450.441,248.023z"/>
<path style="fill:#FFDB56;" d="M437.239,75.51C389.028,27.3,324.93,0.75,256.749,0.75c-4.455,0-8.065,3.611-8.065,8.065v213.374
	c0,4.384,3.502,7.965,7.884,8.063c13.478,0.301,24.443,11.512,24.445,24.993l-0.017,0.586c-0.046,2.168,0.783,4.262,2.301,5.812
	c1.516,1.548,3.594,2.422,5.761,2.422h214.874c4.455,0,8.065-3.611,8.065-8.065C512,187.819,485.449,123.721,437.239,75.51z"/>
<path style="fill:#FBA806;" d="M437.239,75.51C389.028,27.3,324.93,0.75,256.749,0.75c-2.042,0-3.9,0.765-5.321,2.015
	c55.954,7.016,107.696,32.228,148.214,72.745c48.21,48.211,74.76,112.309,74.76,180.489c0,4.454-3.61,8.065-8.065,8.065h37.596
	c4.455,0,8.065-3.611,8.065-8.065C512,187.819,485.449,123.721,437.239,75.51z"/>
<g>
	<path style="fill:#894BA2;" d="M94.776,372.028c-2.588,0-5.131-1.244-6.691-3.551c-22.629-33.496-34.589-72.648-34.589-113.228
		c0-46.386,16.083-91.719,45.288-127.646c28.786-35.413,69.04-60.305,113.35-70.091c4.347-0.963,8.654,1.787,9.613,6.136
		c0.961,4.35-1.786,8.654-6.136,9.614c-40.768,9.005-77.813,31.917-104.313,64.516c-26.873,33.06-41.673,74.779-41.673,117.471
		c0,37.348,11.005,73.38,31.826,104.198c2.493,3.691,1.523,8.705-2.169,11.198C97.899,371.579,96.329,372.028,94.776,372.028z"/>
	<path style="fill:#894BA2;" d="M256,511.249c-68.38,0-132.667-26.629-181.019-74.981S0,323.628,0,255.249
		c0-61.763,22.299-121.409,62.79-167.95c40.089-46.081,95.269-76.365,155.373-85.271c4.406-0.653,8.508,2.388,9.16,6.795
		c0.653,4.407-2.39,8.508-6.795,9.16c-56.304,8.343-108.002,36.719-145.57,79.902c-37.937,43.606-58.83,99.492-58.83,157.364
		c0,64.072,24.951,124.309,70.257,169.614S191.928,495.118,256,495.118c58.092,0,114.141-21.034,157.82-59.227
		c43.269-37.834,71.548-89.836,79.629-146.425c0.63-4.41,4.718-7.466,9.124-6.844c4.41,0.629,7.472,4.714,6.843,9.124
		c-8.625,60.409-38.805,115.913-84.98,156.287C377.816,488.799,317.999,511.249,256,511.249z"/>
</g>
<path style="fill:#00D9C0;" d="M256,214.105c-22.688,0-41.145,18.456-41.145,41.144s18.458,41.144,41.145,41.144
	c22.687,0,41.144-18.456,41.144-41.144S278.687,214.105,256,214.105z"/>
<path style="fill:#1EA29F;" d="M256,214.105c-3.721,0-7.323,0.505-10.753,1.434c17.487,4.741,30.391,20.743,30.391,39.71
	s-12.905,34.969-30.391,39.71c3.43,0.93,7.032,1.434,10.753,1.434c22.687,0,41.144-18.456,41.144-41.144
	C297.144,232.561,278.687,214.105,256,214.105z"/>
<g>
</g>
<g>
</g>
<g>
</g>
<g>
</g>
<g>
</g>
<g>
</g>
<g>
</g>
<g>
</g>
<g>
</g>
<g>
</g>
<g>
</g>
<g>
</g>
<g>
</g>
<g>
</g>
<g>
</g>
</svg>
