<svg version="1.2" xmlns="http://www.w3.org/2000/svg" viewBox="0 0 750 1334" width="750" height="1334">
	<title>New Project</title>
	<style>
		.s0 { fill: #f3e8ff } 
		.s1 { fill: #ff0000 } 
	</style>
	<path id="Background" class="s0" d="m193 112c0.4-31.3 17.3-41.3 46-57 82.7-45.4 136.5-38.9 211 12 76.1 52 128.2 131.6 88 197-22.1 36-91.1 12.9-109.5 46.5-35.8 65.5 155.4 110.1 134.5 189.5-16.6 62.9-131.9 43.1-151.2 105.1-28.7 92.1 182.8 116.1 161.2 220.9-8.5 41.3-52.2 34-72.8 79.5-38.8 85.6 48.2 174.4 7.8 202.5-44.3 30.8-91.8-65.2-192.9-110.3-36.8-16.5-38.9-12-76.1-27.7-78-33-111.8-18.6-150.9-77.7-54.2-81.9 51.1-127.9 17.9-234.3-20.4-65.3-75.8-59.3-78.5-120.9-2.8-64.8 50.9-61.2 74.5-132.1 18.4-55.4 21-58.7 19-117-1.6-45.7-32.6-57.3-18.3-91.1 18-42.6 97.8-8.5 106.3-49.9 2.8-13.6-16.2-18.5-16-35zm14 39"/>
	<path id="Shape 1" class="s1" d="m686 257"/>
</svg>